<svg viewBox="0 0 423 423" xmlns="http://www.w3.org/2000/svg" xmlns:xlink="http://www.w3.org/1999/xlink" width="423.000000" height="423.000000" fill="none" customFrame="#000000">
	<defs>
		<linearGradient id="paint_linear_0" x1="356.905823" x2="212.727737" y1="189.753174" y2="249.641602" gradientUnits="userSpaceOnUse">
			<stop stop-color="rgb(235,162,255)" offset="0" stop-opacity="1" />
			<stop stop-color="rgb(120,129,250)" offset="1" stop-opacity="1" />
		</linearGradient>
		<linearGradient id="paint_linear_1" x1="301.526886" x2="386.445526" y1="61.040966" y2="126.583664" gradientUnits="userSpaceOnUse">
			<stop stop-color="rgb(225,223,253)" offset="0" stop-opacity="1" />
			<stop stop-color="rgb(163,178,252)" offset="1" stop-opacity="1" />
		</linearGradient>
		<linearGradient id="paint_linear_2" x1="116.382721" x2="224.502289" y1="74.3757629" y2="218.441193" gradientUnits="userSpaceOnUse">
			<stop stop-color="rgb(255,216,186)" offset="0" stop-opacity="1" />
			<stop stop-color="rgb(233,132,252)" offset="1" stop-opacity="1" />
		</linearGradient>
		<linearGradient id="paint_linear_3" x1="324.826385" x2="236.458069" y1="141.016632" y2="289.140594" gradientUnits="userSpaceOnUse">
			<stop stop-color="rgb(32,117,255)" offset="0" stop-opacity="1" />
			<stop stop-color="rgb(255,232,216)" offset="0.837222993" stop-opacity="1" />
		</linearGradient>
		<linearGradient id="paint_linear_4" x1="65.3269501" x2="70.404274" y1="89.5399017" y2="180.105469" gradientUnits="userSpaceOnUse">
			<stop stop-color="rgb(225,223,253)" offset="0" stop-opacity="1" />
			<stop stop-color="rgb(163,178,252)" offset="1" stop-opacity="1" />
		</linearGradient>
		<linearGradient id="paint_linear_5" x1="168.683014" x2="97.7488022" y1="166.239899" y2="342.706726" gradientUnits="userSpaceOnUse">
			<stop stop-color="rgb(68,112,255)" offset="0" stop-opacity="1" />
			<stop stop-color="rgb(130,130,255)" offset="0.983952999" stop-opacity="1" />
		</linearGradient>
		<linearGradient id="paint_linear_6" x1="192.223068" x2="192.191772" y1="361.973785" y2="362.240234" gradientUnits="userSpaceOnUse">
			<stop stop-color="rgb(225,223,254)" offset="0" stop-opacity="1" />
			<stop stop-color="rgb(163,179,253)" offset="1" stop-opacity="1" />
		</linearGradient>
		<linearGradient id="paint_linear_7" x1="216.738815" x2="173.42099" y1="273.638611" y2="349.526398" gradientUnits="userSpaceOnUse">
			<stop stop-color="rgb(225,223,254)" offset="0" stop-opacity="1" />
			<stop stop-color="rgb(163,179,253)" offset="1" stop-opacity="1" />
		</linearGradient>
	</defs>
	<g id="组合 290">
		<rect id="矩形 129" width="423.000000" height="423.000000" x="0.000000" y="0.000000" rx="58.000000" fill="rgb(255,255,255)" fill-opacity="0" />
		<g id="组合 280">
			<path id="矢量 422" d="M294.887 326.182L336.382 302.913C349.086 295.787 356.906 282.615 356.906 268.364L356.906 151.283C356.906 148.772 356.649 146.3 356.175 143.881C356.175 143.881 354.836 136.335 350.601 130.064C350.601 130.078 350.614 130.104 350.628 130.117C353.063 135.796 354.064 141.988 353.645 148.127C353.28 153.491 351.887 159.854 348.734 166.992C347.367 169.845 344.175 175.419 338.113 181.204C313.625 203.224 245.086 243.031 199.776 268.391C197.124 269.876 197.138 273.57 199.776 275.056L290.923 326.182C292.154 326.866 293.669 326.866 294.887 326.182Z" fill="url(#paint_linear_0)" fill-rule="nonzero" />
			<path id="矢量 425" d="M338.103 181.197C344.179 175.426 347.358 169.839 348.725 166.986C351.877 159.848 353.27 153.485 353.636 148.121C354.056 141.982 353.054 135.79 350.618 130.111C350.618 130.097 350.618 130.084 350.605 130.071C347.1 124.655 342.271 120.054 336.372 116.741L307.893 100.755C305.241 99.2693 301.939 101.123 301.939 104.094L301.939 207.609C317.175 197.643 330.027 188.454 338.103 181.197Z" fill="url(#paint_linear_1)" fill-rule="nonzero" />
			<path id="矢量 426" d="M273.499 81.4881L232.004 58.219C219.3 51.0937 203.66 51.0937 190.957 58.219L86.6179 116.747C84.3719 118.009 82.302 119.455 80.3809 121.059C80.3809 121.059 74.3062 125.949 70.8291 132.654C70.8291 132.641 70.8562 132.627 70.8697 132.601C74.712 127.711 79.7314 123.767 85.4138 121.059C90.379 118.679 96.7378 116.681 104.68 115.761C107.9 115.485 114.475 115.379 122.647 117.601C154.522 127.198 224.265 164.967 269.522 190.419C272.173 191.904 275.46 190.037 275.46 187.08L275.46 84.8272C275.46 83.4469 274.703 82.1717 273.472 81.4881L273.499 81.4881Z" fill="url(#paint_linear_2)" fill-rule="nonzero" />
			<path id="矢量 427" d="M273.499 81.4881L232.004 58.219C219.3 51.0937 203.66 51.0937 190.957 58.219L86.6179 116.747C84.3719 118.009 82.302 119.455 80.3809 121.059C80.3809 121.059 74.3062 125.949 70.8291 132.654C70.8291 132.641 70.8562 132.627 70.8697 132.601C74.712 127.711 79.7314 123.767 85.4138 121.059C90.379 118.679 96.7378 116.681 104.68 115.761C107.9 115.485 114.475 115.379 122.647 117.601C154.522 127.198 224.265 164.967 269.522 190.419C272.173 191.904 275.46 190.037 275.46 187.08L275.46 84.8272C275.46 83.4469 274.703 82.1717 273.472 81.4881L273.499 81.4881Z" fill="url(#paint_linear_3)" fill-rule="nonzero" />
			<path id="矢量 429" d="M122.676 117.616C114.49 115.395 107.929 115.5 104.709 115.776C96.7668 116.696 90.4081 118.694 85.4428 121.074C79.7605 123.795 74.7411 127.726 70.8988 132.616C70.8988 132.616 70.8852 132.643 70.8717 132.656C67.8006 138.309 66.1094 144.685 66.1094 151.297L66.1094 183.256C66.1094 186.228 69.4105 188.081 72.0623 186.596L164.319 134.838C147.813 127.003 133.201 120.771 122.689 117.616L122.676 117.616Z" fill="url(#paint_linear_4)" fill-rule="nonzero" />
			<path id="矢量 430" d="M66.0938 221.821L66.0938 268.372C66.0938 282.622 73.9137 295.795 86.6178 302.92L190.969 361.462C193.215 362.723 195.542 363.735 197.937 364.55L197.923 364.55C197.923 364.55 205.338 367.207 213.049 366.772C213.023 366.772 213.009 366.772 212.982 366.772C206.704 365.984 200.683 363.722 195.421 360.305C190.82 357.307 185.855 352.969 181.066 346.737C179.213 344.161 175.83 338.692 173.72 330.698C166.346 299.082 165.129 221.505 165.183 170.694C165.183 167.724 161.882 165.882 159.23 167.369L68.0826 218.482C66.8514 219.165 66.0938 220.44 66.0938 221.821Z" fill="url(#paint_linear_5)" fill-rule="nonzero" />
			<path id="矢量 432" d="M192.441 362.235C192.291 362.155 192.142 362.09 191.993 362.011C192.142 362.09 192.291 362.168 192.441 362.235Z" fill="url(#paint_linear_6)" fill-rule="nonzero" />
			<path id="矢量 433" d="M260.513 338.795L168.256 287.038C169.528 304.838 171.286 320.258 173.722 330.684C175.832 338.676 179.215 344.158 181.068 346.722C185.857 352.954 190.823 357.292 195.423 360.289C200.686 363.707 206.707 365.969 212.983 366.758C212.997 366.758 213.011 366.758 213.024 366.758C219.599 366.521 226.135 364.746 232.02 361.446L260.499 345.46C263.151 343.975 263.151 340.268 260.499 338.781L260.513 338.795Z" fill="url(#paint_linear_7)" fill-rule="nonzero" />
		</g>
	</g>
</svg>
